<svg xmlns="http://www.w3.org/2000/svg" viewBox="0 0 200 150" fill="#5fb3a3">
  <!-- 鸽子身体 -->
  <path d="M 60 80 Q 50 70, 50 60 Q 50 45, 65 40 Q 75 38, 85 42 L 95 45 Q 105 48, 110 55 Q 115 62, 115 70 Q 115 80, 105 85 Q 95 90, 80 88 Q 70 86, 60 80 Z" />
  
  <!-- 鸽子头部 -->
  <circle cx="95" cy="48" r="12" />
  
  <!-- 眼睛 -->
  <circle cx="98" cy="46" r="2.5" fill="white" />
  
  <!-- 翅膀羽毛 -->
  <path d="M 60 75 Q 40 70, 30 68 L 35 72 Q 45 74, 60 78 Z" opacity="0.8" />
  <path d="M 58 70 Q 38 65, 28 63 L 33 67 Q 43 69, 58 73 Z" opacity="0.6" />
  <path d="M 56 65 Q 36 60, 26 58 L 31 62 Q 41 64, 56 68 Z" opacity="0.4" />
  
  <!-- 尾巴羽毛 -->
  <path d="M 80 88 Q 75 95, 70 100 L 72 96 Q 76 90, 82 86 Z" opacity="0.6" />
  <path d="M 85 89 Q 82 96, 78 102 L 80 98 Q 83 92, 87 87 Z" opacity="0.5" />
</svg>

